<svg width="228" height="164" viewBox="0 0 228 164" fill="none" xmlns="http://www.w3.org/2000/svg">
<g clip-path="url(#clip0_0_1)">
<path d="M164 109.5H134C137.333 121.833 144.7 147.9 147.5 153.5C150.3 159.1 157.333 162.833 160.5 164H179.5L164 109.5Z" fill="#0080FF"/>
<path d="M227 105V163.5H218C206.8 163.5 200 152.167 198 146.5V105H227Z" fill="#0080FF"/>
<circle cx="212.5" cy="37.5" r="15.5" fill="#0080FF"/>
<path d="M63 63L66.5 75.5H86.5L92.5 56.5L80.5 16L63 63Z" fill="#0080FF"/>
<path d="M154.5 75.5H125L121 63L138.5 16L154.5 75.5Z" fill="#0080FF"/>
<path d="M17 109L0 164.5H19.5C28.7 164.5 36 156 36 151.5L49 109H17Z" fill="#FFBB00"/>
<path d="M48.5 8L28 75.5H58.5L80.5 16C78.5 9 75 0 63 0C53.4 0 49.3333 5.33333 48.5 8Z" fill="#FFBB00"/>
<path d="M106.5 8L86 75.5H116.5L138.5 16C136.5 9 133 0 121 0C111.4 0 107.333 5.33333 106.5 8Z" fill="#FFBB00"/>
<path d="M216.5 79H26L18.5 106H206C217.6 106.8 224.833 118.333 227 124V88C225.4 81.2 219.333 79.1667 216.5 79Z" fill="#FE9601"/>
</g>
<defs>
<clipPath id="clip0_0_1">
<rect width="228" height="164" fill="white"/>
</clipPath>
</defs>
</svg>
